<svg width="604" height="604" viewBox="0 0 604 604" fill="none" xmlns="http://www.w3.org/2000/svg">
<path d="M293.024 154.271C320.241 127.055 366.714 139.507 376.676 176.686L430.831 378.796C440.793 415.975 406.773 449.995 369.594 440.033L167.484 385.878C130.305 375.916 117.853 329.443 145.069 302.227L293.024 154.271Z" fill="url(#paint0_linear_334_20)"/>
<path d="M258.359 155.853C277.604 122.519 325.717 122.519 344.962 155.853L449.582 337.06C468.827 370.393 444.77 412.06 406.28 412.06H197.04C158.55 412.06 134.494 370.393 153.739 337.06L258.359 155.853Z" fill="url(#paint1_linear_334_20)"/>
<path d="M337.027 153.704C370.361 134.459 412.027 158.515 412.027 197.005L412.027 406.245C412.027 444.735 370.361 468.791 337.027 449.546L155.82 344.926C122.487 325.681 122.487 277.569 155.82 258.324L337.027 153.704Z" fill="url(#paint2_linear_334_20)"/>
<path d="M355.078 293.337C361.745 297.186 361.745 306.809 355.078 310.658L282.956 352.298C276.289 356.147 267.956 351.335 267.956 343.637L267.956 260.358C267.956 252.66 276.289 247.848 282.956 251.697L355.078 293.337Z" fill="white"/>
<path d="M316.281 295.913C321.006 298.596 321.006 305.404 316.281 308.087L291.707 322.043C287.04 324.693 281.25 321.322 281.25 315.956L281.25 288.044C281.25 282.678 287.04 279.307 291.707 281.957L316.281 295.913Z" fill="#9517E2"/>
<defs>
<linearGradient id="paint0_linear_334_20" x1="340.689" y1="144.993" x2="239.965" y2="519.596" gradientUnits="userSpaceOnUse">
<stop stop-color="#9517E2" stop-opacity="0.66"/>
<stop offset="0.928557" stop-color="#D7177F" stop-opacity="0.25"/>
</linearGradient>
<linearGradient id="paint1_linear_334_20" x1="301.998" y1="134.554" x2="301.66" y2="522.462" gradientUnits="userSpaceOnUse">
<stop stop-color="#9517E2" stop-opacity="0.66"/>
<stop offset="0.928557" stop-color="#D7177F" stop-opacity="0.25"/>
</linearGradient>
<linearGradient id="paint2_linear_334_20" x1="385.469" y1="157.078" x2="191.222" y2="492.848" gradientUnits="userSpaceOnUse">
<stop stop-color="#9517E2" stop-opacity="0.66"/>
<stop offset="0.928557" stop-color="#D7177F" stop-opacity="0.25"/>
</linearGradient>
</defs>
</svg>
